<mxfile host="app.diagrams.net" modified="2023-05-30T01:13:33.226Z" agent="Mozilla/5.0 (Windows NT 10.0; Win64; x64; rv:109.0) Gecko/20100101 Firefox/113.0" etag="upi40SY6HK3X86liAyxO" version="21.3.3" type="device">
  <diagram name="Page-1" id="74e2e168-ea6b-b213-b513-2b3c1d86103e">
    <mxGraphModel dx="1509" dy="785" grid="1" gridSize="10" guides="1" tooltips="1" connect="1" arrows="1" fold="1" page="1" pageScale="1" pageWidth="1100" pageHeight="850" background="none" math="0" shadow="0">
      <root>
        <mxCell id="0" />
        <mxCell id="1" parent="0" />
        <mxCell id="Qo5TcCkdi5H7ZfwQuHz0-1" value="Vendedor" style="rounded=0;whiteSpace=wrap;html=1;" parent="1" vertex="1">
          <mxGeometry x="125" y="193.55" width="100" height="40" as="geometry" />
        </mxCell>
        <mxCell id="Qo5TcCkdi5H7ZfwQuHz0-2" value="&lt;div&gt;Jefe de ventas&lt;/div&gt;" style="rounded=0;whiteSpace=wrap;html=1;" parent="1" vertex="1">
          <mxGeometry x="125" y="455" width="100" height="40" as="geometry" />
        </mxCell>
        <mxCell id="Qo5TcCkdi5H7ZfwQuHz0-3" value="Producto" style="rounded=0;whiteSpace=wrap;html=1;" parent="1" vertex="1">
          <mxGeometry x="900" y="191.05" width="100" height="45" as="geometry" />
        </mxCell>
        <mxCell id="Qo5TcCkdi5H7ZfwQuHz0-6" value="Venta" style="rounded=0;whiteSpace=wrap;html=1;" parent="1" vertex="1">
          <mxGeometry x="500" y="193.55" width="100" height="40" as="geometry" />
        </mxCell>
        <mxCell id="Qo5TcCkdi5H7ZfwQuHz0-8" value="Cliente" style="rounded=0;whiteSpace=wrap;html=1;" parent="1" vertex="1">
          <mxGeometry x="500" y="450" width="100" height="40" as="geometry" />
        </mxCell>
        <mxCell id="Qo5TcCkdi5H7ZfwQuHz0-9" value="" style="endArrow=none;html=1;rounded=0;entryX=1;entryY=0.5;entryDx=0;entryDy=0;exitX=0;exitY=0.5;exitDx=0;exitDy=0;" parent="1" source="Qo5TcCkdi5H7ZfwQuHz0-20" target="Qo5TcCkdi5H7ZfwQuHz0-1" edge="1">
          <mxGeometry width="50" height="50" relative="1" as="geometry">
            <mxPoint x="230" y="435" as="sourcePoint" />
            <mxPoint x="620" y="435" as="targetPoint" />
          </mxGeometry>
        </mxCell>
        <mxCell id="Qo5TcCkdi5H7ZfwQuHz0-91" value="(1,n)" style="edgeLabel;html=1;align=center;verticalAlign=middle;resizable=0;points=[];" parent="Qo5TcCkdi5H7ZfwQuHz0-9" vertex="1" connectable="0">
          <mxGeometry x="0.7977" y="-2" relative="1" as="geometry">
            <mxPoint x="6" y="-12" as="offset" />
          </mxGeometry>
        </mxCell>
        <mxCell id="Qo5TcCkdi5H7ZfwQuHz0-11" value="" style="endArrow=none;html=1;rounded=0;exitX=0.5;exitY=0;exitDx=0;exitDy=0;entryX=0.5;entryY=1;entryDx=0;entryDy=0;" parent="1" source="Qo5TcCkdi5H7ZfwQuHz0-13" target="Qo5TcCkdi5H7ZfwQuHz0-1" edge="1">
          <mxGeometry width="50" height="50" relative="1" as="geometry">
            <mxPoint x="210" y="425" as="sourcePoint" />
            <mxPoint x="180" y="310" as="targetPoint" />
          </mxGeometry>
        </mxCell>
        <mxCell id="Qo5TcCkdi5H7ZfwQuHz0-94" value="(1,1)" style="edgeLabel;html=1;align=center;verticalAlign=middle;resizable=0;points=[];" parent="Qo5TcCkdi5H7ZfwQuHz0-11" vertex="1" connectable="0">
          <mxGeometry x="0.6054" y="-3" relative="1" as="geometry">
            <mxPoint x="12" as="offset" />
          </mxGeometry>
        </mxCell>
        <mxCell id="zIO-TWlo7L_6RzzPlGAj-1" style="edgeStyle=orthogonalEdgeStyle;rounded=0;orthogonalLoop=1;jettySize=auto;html=1;exitX=0.5;exitY=1;exitDx=0;exitDy=0;entryX=0.5;entryY=0;entryDx=0;entryDy=0;strokeColor=none;" edge="1" parent="1" source="Qo5TcCkdi5H7ZfwQuHz0-13" target="Qo5TcCkdi5H7ZfwQuHz0-2">
          <mxGeometry relative="1" as="geometry" />
        </mxCell>
        <mxCell id="Qo5TcCkdi5H7ZfwQuHz0-13" value="Tiene" style="rhombus;whiteSpace=wrap;html=1;" parent="1" vertex="1">
          <mxGeometry x="110" y="320" width="130" height="40" as="geometry" />
        </mxCell>
        <mxCell id="Qo5TcCkdi5H7ZfwQuHz0-12" value="Compra" style="rhombus;whiteSpace=wrap;html=1;" parent="1" vertex="1">
          <mxGeometry x="485" y="330" width="130" height="40" as="geometry" />
        </mxCell>
        <mxCell id="Qo5TcCkdi5H7ZfwQuHz0-22" value="" style="endArrow=none;html=1;rounded=0;entryX=1;entryY=0.5;entryDx=0;entryDy=0;exitX=0;exitY=0.5;exitDx=0;exitDy=0;" parent="1" source="Qo5TcCkdi5H7ZfwQuHz0-6" target="Qo5TcCkdi5H7ZfwQuHz0-20" edge="1">
          <mxGeometry width="50" height="50" relative="1" as="geometry">
            <mxPoint x="500" y="455" as="sourcePoint" />
            <mxPoint x="280" y="455" as="targetPoint" />
          </mxGeometry>
        </mxCell>
        <mxCell id="Qo5TcCkdi5H7ZfwQuHz0-20" value="Realiza" style="rhombus;whiteSpace=wrap;html=1;" parent="1" vertex="1">
          <mxGeometry x="310" y="193.55" width="130" height="40" as="geometry" />
        </mxCell>
        <mxCell id="Qo5TcCkdi5H7ZfwQuHz0-23" value="" style="endArrow=none;html=1;rounded=0;exitX=0;exitY=0.5;exitDx=0;exitDy=0;entryX=1;entryY=0.5;entryDx=0;entryDy=0;" parent="1" source="Qo5TcCkdi5H7ZfwQuHz0-24" target="Qo5TcCkdi5H7ZfwQuHz0-6" edge="1">
          <mxGeometry width="50" height="50" relative="1" as="geometry">
            <mxPoint x="240" y="685" as="sourcePoint" />
            <mxPoint x="240" y="485" as="targetPoint" />
          </mxGeometry>
        </mxCell>
        <mxCell id="Qo5TcCkdi5H7ZfwQuHz0-97" value="(1,n)" style="edgeLabel;html=1;align=center;verticalAlign=middle;resizable=0;points=[];" parent="Qo5TcCkdi5H7ZfwQuHz0-23" vertex="1" connectable="0">
          <mxGeometry x="0.3418" y="1" relative="1" as="geometry">
            <mxPoint x="-12" y="-15" as="offset" />
          </mxGeometry>
        </mxCell>
        <mxCell id="Qo5TcCkdi5H7ZfwQuHz0-26" value="" style="endArrow=none;html=1;rounded=0;exitX=0;exitY=0.5;exitDx=0;exitDy=0;entryX=1;entryY=0.5;entryDx=0;entryDy=0;" parent="1" source="Qo5TcCkdi5H7ZfwQuHz0-3" target="Qo5TcCkdi5H7ZfwQuHz0-24" edge="1">
          <mxGeometry width="50" height="50" relative="1" as="geometry">
            <mxPoint x="860" y="212.5" as="sourcePoint" />
            <mxPoint x="820" y="212.5" as="targetPoint" />
          </mxGeometry>
        </mxCell>
        <mxCell id="Qo5TcCkdi5H7ZfwQuHz0-98" value="&lt;font color=&quot;#ff0000&quot;&gt;&lt;span style=&quot;background-color: rgb(25, 29, 2);&quot;&gt;(1,n)&lt;/span&gt;&lt;/font&gt;" style="edgeLabel;html=1;align=center;verticalAlign=middle;resizable=0;points=[];" parent="Qo5TcCkdi5H7ZfwQuHz0-26" vertex="1" connectable="0">
          <mxGeometry x="0.3591" y="1" relative="1" as="geometry">
            <mxPoint x="34" y="-15" as="offset" />
          </mxGeometry>
        </mxCell>
        <mxCell id="Qo5TcCkdi5H7ZfwQuHz0-24" value="Incluye" style="rhombus;whiteSpace=wrap;html=1;" parent="1" vertex="1">
          <mxGeometry x="690" y="193.55" width="130" height="40" as="geometry" />
        </mxCell>
        <mxCell id="Qo5TcCkdi5H7ZfwQuHz0-27" value="&lt;u&gt;ID&lt;/u&gt;" style="ellipse;whiteSpace=wrap;html=1;" parent="1" vertex="1">
          <mxGeometry x="60" y="135" width="50" height="35" as="geometry" />
        </mxCell>
        <mxCell id="Qo5TcCkdi5H7ZfwQuHz0-28" value="Usuario" style="ellipse;whiteSpace=wrap;html=1;" parent="1" vertex="1">
          <mxGeometry x="90" y="95" width="70" height="35" as="geometry" />
        </mxCell>
        <mxCell id="Qo5TcCkdi5H7ZfwQuHz0-29" value="Nombre" style="ellipse;whiteSpace=wrap;html=1;" parent="1" vertex="1">
          <mxGeometry x="240" y="120" width="80" height="35" as="geometry" />
        </mxCell>
        <mxCell id="Qo5TcCkdi5H7ZfwQuHz0-30" value="ContraseÃ±a" style="ellipse;whiteSpace=wrap;html=1;" parent="1" vertex="1">
          <mxGeometry x="170" y="95" width="80" height="35" as="geometry" />
        </mxCell>
        <mxCell id="Qo5TcCkdi5H7ZfwQuHz0-31" value="" style="endArrow=none;html=1;rounded=0;exitX=0.5;exitY=0;exitDx=0;exitDy=0;entryX=1.017;entryY=0.699;entryDx=0;entryDy=0;entryPerimeter=0;" parent="1" source="Qo5TcCkdi5H7ZfwQuHz0-1" target="Qo5TcCkdi5H7ZfwQuHz0-27" edge="1">
          <mxGeometry width="50" height="50" relative="1" as="geometry">
            <mxPoint x="150" y="280" as="sourcePoint" />
            <mxPoint x="110" y="220" as="targetPoint" />
          </mxGeometry>
        </mxCell>
        <mxCell id="Qo5TcCkdi5H7ZfwQuHz0-32" value="" style="endArrow=none;html=1;rounded=0;exitX=0.5;exitY=0;exitDx=0;exitDy=0;entryX=0.638;entryY=0.941;entryDx=0;entryDy=0;entryPerimeter=0;" parent="1" source="Qo5TcCkdi5H7ZfwQuHz0-1" target="Qo5TcCkdi5H7ZfwQuHz0-28" edge="1">
          <mxGeometry width="50" height="50" relative="1" as="geometry">
            <mxPoint x="240" y="205" as="sourcePoint" />
            <mxPoint x="141" y="184" as="targetPoint" />
          </mxGeometry>
        </mxCell>
        <mxCell id="Qo5TcCkdi5H7ZfwQuHz0-33" value="" style="endArrow=none;html=1;rounded=0;exitX=0.5;exitY=0;exitDx=0;exitDy=0;entryX=0.434;entryY=0.963;entryDx=0;entryDy=0;entryPerimeter=0;" parent="1" source="Qo5TcCkdi5H7ZfwQuHz0-1" target="Qo5TcCkdi5H7ZfwQuHz0-30" edge="1">
          <mxGeometry width="50" height="50" relative="1" as="geometry">
            <mxPoint x="240" y="205" as="sourcePoint" />
            <mxPoint x="185" y="153" as="targetPoint" />
          </mxGeometry>
        </mxCell>
        <mxCell id="Qo5TcCkdi5H7ZfwQuHz0-34" value="" style="endArrow=none;html=1;rounded=0;entryX=0.5;entryY=0;entryDx=0;entryDy=0;exitX=0.039;exitY=0.687;exitDx=0;exitDy=0;exitPerimeter=0;" parent="1" source="Qo5TcCkdi5H7ZfwQuHz0-29" target="Qo5TcCkdi5H7ZfwQuHz0-1" edge="1">
          <mxGeometry width="50" height="50" relative="1" as="geometry">
            <mxPoint x="240" y="150" as="sourcePoint" />
            <mxPoint x="195" y="163" as="targetPoint" />
          </mxGeometry>
        </mxCell>
        <mxCell id="Qo5TcCkdi5H7ZfwQuHz0-39" value="&lt;u&gt;ID&lt;/u&gt;" style="ellipse;whiteSpace=wrap;html=1;" parent="1" vertex="1">
          <mxGeometry x="40" y="526" width="50" height="35" as="geometry" />
        </mxCell>
        <mxCell id="Qo5TcCkdi5H7ZfwQuHz0-40" value="Usuario" style="ellipse;whiteSpace=wrap;html=1;" parent="1" vertex="1">
          <mxGeometry x="90" y="551" width="70" height="35" as="geometry" />
        </mxCell>
        <mxCell id="Qo5TcCkdi5H7ZfwQuHz0-41" value="Nombre" style="ellipse;whiteSpace=wrap;html=1;" parent="1" vertex="1">
          <mxGeometry x="250" y="516" width="80" height="35" as="geometry" />
        </mxCell>
        <mxCell id="Qo5TcCkdi5H7ZfwQuHz0-42" value="ContraseÃ±a" style="ellipse;whiteSpace=wrap;html=1;" parent="1" vertex="1">
          <mxGeometry x="170" y="551" width="80" height="35" as="geometry" />
        </mxCell>
        <mxCell id="Qo5TcCkdi5H7ZfwQuHz0-43" value="" style="endArrow=none;html=1;rounded=0;entryX=0.5;entryY=1;entryDx=0;entryDy=0;exitX=0;exitY=0.5;exitDx=0;exitDy=0;" parent="1" source="Qo5TcCkdi5H7ZfwQuHz0-41" target="Qo5TcCkdi5H7ZfwQuHz0-2" edge="1">
          <mxGeometry width="50" height="50" relative="1" as="geometry">
            <mxPoint x="250" y="533.5" as="sourcePoint" />
            <mxPoint x="470" y="446" as="targetPoint" />
          </mxGeometry>
        </mxCell>
        <mxCell id="Qo5TcCkdi5H7ZfwQuHz0-44" value="" style="endArrow=none;html=1;rounded=0;entryX=0.5;entryY=1;entryDx=0;entryDy=0;exitX=0.5;exitY=0;exitDx=0;exitDy=0;" parent="1" source="Qo5TcCkdi5H7ZfwQuHz0-42" target="Qo5TcCkdi5H7ZfwQuHz0-2" edge="1">
          <mxGeometry width="50" height="50" relative="1" as="geometry">
            <mxPoint x="271" y="531" as="sourcePoint" />
            <mxPoint x="190" y="511" as="targetPoint" />
          </mxGeometry>
        </mxCell>
        <mxCell id="Qo5TcCkdi5H7ZfwQuHz0-45" value="" style="endArrow=none;html=1;rounded=0;entryX=0.5;entryY=1;entryDx=0;entryDy=0;exitX=0.5;exitY=0;exitDx=0;exitDy=0;" parent="1" source="Qo5TcCkdi5H7ZfwQuHz0-40" target="Qo5TcCkdi5H7ZfwQuHz0-2" edge="1">
          <mxGeometry width="50" height="50" relative="1" as="geometry">
            <mxPoint x="281" y="541" as="sourcePoint" />
            <mxPoint x="200" y="521" as="targetPoint" />
          </mxGeometry>
        </mxCell>
        <mxCell id="Qo5TcCkdi5H7ZfwQuHz0-46" value="" style="endArrow=none;html=1;rounded=0;entryX=0.5;entryY=1;entryDx=0;entryDy=0;exitX=1;exitY=0;exitDx=0;exitDy=0;" parent="1" source="Qo5TcCkdi5H7ZfwQuHz0-39" target="Qo5TcCkdi5H7ZfwQuHz0-2" edge="1">
          <mxGeometry width="50" height="50" relative="1" as="geometry">
            <mxPoint x="291" y="551" as="sourcePoint" />
            <mxPoint x="210" y="531" as="targetPoint" />
          </mxGeometry>
        </mxCell>
        <mxCell id="Qo5TcCkdi5H7ZfwQuHz0-47" value="Precio total venta" style="ellipse;whiteSpace=wrap;html=1;" parent="1" vertex="1">
          <mxGeometry x="420" y="60" width="80" height="35" as="geometry" />
        </mxCell>
        <mxCell id="Qo5TcCkdi5H7ZfwQuHz0-48" value="Vendedor" style="ellipse;whiteSpace=wrap;html=1;" parent="1" vertex="1">
          <mxGeometry x="415" y="100" width="80" height="35" as="geometry" />
        </mxCell>
        <mxCell id="Qo5TcCkdi5H7ZfwQuHz0-49" value="Cliente" style="ellipse;whiteSpace=wrap;html=1;" parent="1" vertex="1">
          <mxGeometry x="600" y="100" width="80" height="35" as="geometry" />
        </mxCell>
        <mxCell id="Qo5TcCkdi5H7ZfwQuHz0-50" value="Fecha y hora" style="ellipse;whiteSpace=wrap;html=1;" parent="1" vertex="1">
          <mxGeometry x="595" y="140" width="90" height="35" as="geometry" />
        </mxCell>
        <mxCell id="Qo5TcCkdi5H7ZfwQuHz0-51" value="&lt;u&gt;ID&lt;/u&gt;" style="ellipse;whiteSpace=wrap;html=1;" parent="1" vertex="1">
          <mxGeometry x="430" y="140" width="50" height="35" as="geometry" />
        </mxCell>
        <mxCell id="Qo5TcCkdi5H7ZfwQuHz0-58" value="Productos" style="ellipse;whiteSpace=wrap;html=1;" parent="1" vertex="1">
          <mxGeometry x="595" y="62.5" width="80" height="35" as="geometry" />
        </mxCell>
        <mxCell id="Qo5TcCkdi5H7ZfwQuHz0-64" value="Boleta o Factura" style="ellipse;whiteSpace=wrap;html=1;" parent="1" vertex="1">
          <mxGeometry x="505" y="50" width="90" height="35" as="geometry" />
        </mxCell>
        <mxCell id="Qo5TcCkdi5H7ZfwQuHz0-78" value="&lt;u&gt;ID&lt;/u&gt;" style="ellipse;whiteSpace=wrap;html=1;" parent="1" vertex="1">
          <mxGeometry x="820" y="115.00000000000001" width="50" height="35" as="geometry" />
        </mxCell>
        <mxCell id="Qo5TcCkdi5H7ZfwQuHz0-79" value="Disponibilidad en inventario" style="ellipse;whiteSpace=wrap;html=1;" parent="1" vertex="1">
          <mxGeometry x="850" y="75.00000000000001" width="90" height="40" as="geometry" />
        </mxCell>
        <mxCell id="Qo5TcCkdi5H7ZfwQuHz0-80" value="Precio" style="ellipse;whiteSpace=wrap;html=1;" parent="1" vertex="1">
          <mxGeometry x="950" y="85.00000000000001" width="60" height="30" as="geometry" />
        </mxCell>
        <mxCell id="Qo5TcCkdi5H7ZfwQuHz0-81" value="" style="endArrow=none;html=1;rounded=0;entryX=0.5;entryY=1;entryDx=0;entryDy=0;exitX=0.5;exitY=0;exitDx=0;exitDy=0;" parent="1" source="Qo5TcCkdi5H7ZfwQuHz0-3" target="Qo5TcCkdi5H7ZfwQuHz0-79" edge="1">
          <mxGeometry width="50" height="50" relative="1" as="geometry">
            <mxPoint x="650" y="-17.499999999999986" as="sourcePoint" />
            <mxPoint x="685" y="-4.499999999999986" as="targetPoint" />
          </mxGeometry>
        </mxCell>
        <mxCell id="Qo5TcCkdi5H7ZfwQuHz0-82" value="" style="endArrow=none;html=1;rounded=0;entryX=0.984;entryY=0.674;entryDx=0;entryDy=0;exitX=0.5;exitY=0;exitDx=0;exitDy=0;entryPerimeter=0;" parent="1" source="Qo5TcCkdi5H7ZfwQuHz0-3" target="Qo5TcCkdi5H7ZfwQuHz0-78" edge="1">
          <mxGeometry width="50" height="50" relative="1" as="geometry">
            <mxPoint x="910" y="187.5" as="sourcePoint" />
            <mxPoint x="920" y="147.5" as="targetPoint" />
          </mxGeometry>
        </mxCell>
        <mxCell id="Qo5TcCkdi5H7ZfwQuHz0-83" value="" style="endArrow=none;html=1;rounded=0;entryX=0.32;entryY=0.999;entryDx=0;entryDy=0;exitX=0.5;exitY=0;exitDx=0;exitDy=0;entryPerimeter=0;" parent="1" source="Qo5TcCkdi5H7ZfwQuHz0-3" target="Qo5TcCkdi5H7ZfwQuHz0-80" edge="1">
          <mxGeometry width="50" height="50" relative="1" as="geometry">
            <mxPoint x="930" y="212.5" as="sourcePoint" />
            <mxPoint x="930" y="157.5" as="targetPoint" />
          </mxGeometry>
        </mxCell>
        <mxCell id="Qo5TcCkdi5H7ZfwQuHz0-84" value="&lt;u&gt;ID&lt;/u&gt;" style="ellipse;whiteSpace=wrap;html=1;" parent="1" vertex="1">
          <mxGeometry x="462" y="523.5" width="50" height="35" as="geometry" />
        </mxCell>
        <mxCell id="Qo5TcCkdi5H7ZfwQuHz0-85" value="Rut" style="ellipse;whiteSpace=wrap;html=1;" parent="1" vertex="1">
          <mxGeometry x="525" y="551" width="50" height="40" as="geometry" />
        </mxCell>
        <mxCell id="Qo5TcCkdi5H7ZfwQuHz0-86" value="NÂ° de compras" style="ellipse;whiteSpace=wrap;html=1;" parent="1" vertex="1">
          <mxGeometry x="575" y="526" width="90" height="30" as="geometry" />
        </mxCell>
        <mxCell id="Qo5TcCkdi5H7ZfwQuHz0-88" value="" style="endArrow=none;html=1;rounded=0;entryX=0.5;entryY=0;entryDx=0;entryDy=0;exitX=0.5;exitY=1;exitDx=0;exitDy=0;" parent="1" source="Qo5TcCkdi5H7ZfwQuHz0-8" target="Qo5TcCkdi5H7ZfwQuHz0-85" edge="1">
          <mxGeometry width="50" height="50" relative="1" as="geometry">
            <mxPoint x="890" y="395" as="sourcePoint" />
            <mxPoint x="880" y="410" as="targetPoint" />
          </mxGeometry>
        </mxCell>
        <mxCell id="Qo5TcCkdi5H7ZfwQuHz0-89" value="" style="endArrow=none;html=1;rounded=0;exitX=1;exitY=0;exitDx=0;exitDy=0;entryX=0.5;entryY=1;entryDx=0;entryDy=0;" parent="1" source="Qo5TcCkdi5H7ZfwQuHz0-84" target="Qo5TcCkdi5H7ZfwQuHz0-8" edge="1">
          <mxGeometry width="50" height="50" relative="1" as="geometry">
            <mxPoint x="910" y="468.55" as="sourcePoint" />
            <mxPoint x="850" y="400" as="targetPoint" />
          </mxGeometry>
        </mxCell>
        <mxCell id="Qo5TcCkdi5H7ZfwQuHz0-90" value="" style="endArrow=none;html=1;rounded=0;exitX=0.222;exitY=-0.008;exitDx=0;exitDy=0;entryX=0.5;entryY=1;entryDx=0;entryDy=0;exitPerimeter=0;" parent="1" source="Qo5TcCkdi5H7ZfwQuHz0-86" target="Qo5TcCkdi5H7ZfwQuHz0-8" edge="1">
          <mxGeometry width="50" height="50" relative="1" as="geometry">
            <mxPoint x="920" y="478.55" as="sourcePoint" />
            <mxPoint x="910" y="400" as="targetPoint" />
          </mxGeometry>
        </mxCell>
        <mxCell id="zIO-TWlo7L_6RzzPlGAj-2" value="" style="endArrow=none;html=1;rounded=0;exitX=0.5;exitY=0;exitDx=0;exitDy=0;entryX=0.5;entryY=1;entryDx=0;entryDy=0;" edge="1" parent="1" source="Qo5TcCkdi5H7ZfwQuHz0-2" target="Qo5TcCkdi5H7ZfwQuHz0-13">
          <mxGeometry width="50" height="50" relative="1" as="geometry">
            <mxPoint x="190" y="331" as="sourcePoint" />
            <mxPoint x="240" y="170" as="targetPoint" />
          </mxGeometry>
        </mxCell>
        <mxCell id="zIO-TWlo7L_6RzzPlGAj-3" value="(1,n)" style="edgeLabel;html=1;align=center;verticalAlign=middle;resizable=0;points=[];" vertex="1" connectable="0" parent="zIO-TWlo7L_6RzzPlGAj-2">
          <mxGeometry x="-0.5946" relative="1" as="geometry">
            <mxPoint x="17" as="offset" />
          </mxGeometry>
        </mxCell>
        <mxCell id="zIO-TWlo7L_6RzzPlGAj-5" value="" style="endArrow=none;html=1;rounded=0;entryX=0.5;entryY=1;entryDx=0;entryDy=0;exitX=0.5;exitY=0;exitDx=0;exitDy=0;" edge="1" parent="1" source="Qo5TcCkdi5H7ZfwQuHz0-8" target="Qo5TcCkdi5H7ZfwQuHz0-12">
          <mxGeometry width="50" height="50" relative="1" as="geometry">
            <mxPoint x="715" y="550" as="sourcePoint" />
            <mxPoint x="630" y="470" as="targetPoint" />
          </mxGeometry>
        </mxCell>
        <mxCell id="zIO-TWlo7L_6RzzPlGAj-6" value="(1,n)" style="edgeLabel;html=1;align=center;verticalAlign=middle;resizable=0;points=[];" vertex="1" connectable="0" parent="zIO-TWlo7L_6RzzPlGAj-5">
          <mxGeometry x="0.7977" y="-2" relative="1" as="geometry">
            <mxPoint x="18" y="52" as="offset" />
          </mxGeometry>
        </mxCell>
        <mxCell id="zIO-TWlo7L_6RzzPlGAj-7" value="" style="endArrow=none;html=1;rounded=0;exitX=0.5;exitY=0;exitDx=0;exitDy=0;entryX=0.5;entryY=1;entryDx=0;entryDy=0;" edge="1" parent="1" source="Qo5TcCkdi5H7ZfwQuHz0-12" target="Qo5TcCkdi5H7ZfwQuHz0-6">
          <mxGeometry width="50" height="50" relative="1" as="geometry">
            <mxPoint x="989.41" y="540" as="sourcePoint" />
            <mxPoint x="870" y="635" as="targetPoint" />
          </mxGeometry>
        </mxCell>
        <mxCell id="zIO-TWlo7L_6RzzPlGAj-8" value="(1,1)" style="edgeLabel;html=1;align=center;verticalAlign=middle;resizable=0;points=[];" vertex="1" connectable="0" parent="zIO-TWlo7L_6RzzPlGAj-7">
          <mxGeometry x="0.7977" y="-2" relative="1" as="geometry">
            <mxPoint x="18" y="6" as="offset" />
          </mxGeometry>
        </mxCell>
        <mxCell id="zIO-TWlo7L_6RzzPlGAj-9" value="Categoria" style="rounded=0;whiteSpace=wrap;html=1;" vertex="1" parent="1">
          <mxGeometry x="900" y="452.5" width="100" height="45" as="geometry" />
        </mxCell>
        <mxCell id="zIO-TWlo7L_6RzzPlGAj-10" value="&lt;u&gt;ID&lt;/u&gt;" style="ellipse;whiteSpace=wrap;html=1;" vertex="1" parent="1">
          <mxGeometry x="890" y="540" width="50" height="35" as="geometry" />
        </mxCell>
        <mxCell id="zIO-TWlo7L_6RzzPlGAj-12" value="Nombre" style="ellipse;whiteSpace=wrap;html=1;" vertex="1" parent="1">
          <mxGeometry x="990" y="115" width="80" height="35" as="geometry" />
        </mxCell>
        <mxCell id="zIO-TWlo7L_6RzzPlGAj-13" value="Nombre" style="ellipse;whiteSpace=wrap;html=1;" vertex="1" parent="1">
          <mxGeometry x="950" y="540" width="80" height="35" as="geometry" />
        </mxCell>
        <mxCell id="zIO-TWlo7L_6RzzPlGAj-16" value="(1,n)" style="edgeLabel;html=1;align=center;verticalAlign=middle;resizable=0;points=[];" vertex="1" connectable="0" parent="1">
          <mxGeometry x="485.0014285714287" y="199.99999999999994" as="geometry" />
        </mxCell>
        <mxCell id="zIO-TWlo7L_6RzzPlGAj-17" value="" style="endArrow=none;html=1;rounded=0;entryX=0.5;entryY=0;entryDx=0;entryDy=0;exitX=0.5;exitY=1;exitDx=0;exitDy=0;" edge="1" parent="1" source="Qo5TcCkdi5H7ZfwQuHz0-64" target="Qo5TcCkdi5H7ZfwQuHz0-6">
          <mxGeometry width="50" height="50" relative="1" as="geometry">
            <mxPoint x="540" y="270" as="sourcePoint" />
            <mxPoint x="590" y="220" as="targetPoint" />
          </mxGeometry>
        </mxCell>
        <mxCell id="zIO-TWlo7L_6RzzPlGAj-18" value="" style="endArrow=none;html=1;rounded=0;entryX=0.5;entryY=0;entryDx=0;entryDy=0;exitX=0.956;exitY=0.774;exitDx=0;exitDy=0;exitPerimeter=0;" edge="1" parent="1" source="Qo5TcCkdi5H7ZfwQuHz0-47" target="Qo5TcCkdi5H7ZfwQuHz0-6">
          <mxGeometry width="50" height="50" relative="1" as="geometry">
            <mxPoint x="560" y="95" as="sourcePoint" />
            <mxPoint x="560" y="204" as="targetPoint" />
          </mxGeometry>
        </mxCell>
        <mxCell id="zIO-TWlo7L_6RzzPlGAj-19" value="" style="endArrow=none;html=1;rounded=0;entryX=0.5;entryY=0;entryDx=0;entryDy=0;exitX=0.018;exitY=0.685;exitDx=0;exitDy=0;exitPerimeter=0;" edge="1" parent="1" source="Qo5TcCkdi5H7ZfwQuHz0-58" target="Qo5TcCkdi5H7ZfwQuHz0-6">
          <mxGeometry width="50" height="50" relative="1" as="geometry">
            <mxPoint x="570" y="105" as="sourcePoint" />
            <mxPoint x="570" y="214" as="targetPoint" />
          </mxGeometry>
        </mxCell>
        <mxCell id="zIO-TWlo7L_6RzzPlGAj-20" value="" style="endArrow=none;html=1;rounded=0;entryX=0.5;entryY=0;entryDx=0;entryDy=0;exitX=0;exitY=0.5;exitDx=0;exitDy=0;" edge="1" parent="1" source="Qo5TcCkdi5H7ZfwQuHz0-49" target="Qo5TcCkdi5H7ZfwQuHz0-6">
          <mxGeometry width="50" height="50" relative="1" as="geometry">
            <mxPoint x="580" y="115" as="sourcePoint" />
            <mxPoint x="580" y="224" as="targetPoint" />
          </mxGeometry>
        </mxCell>
        <mxCell id="zIO-TWlo7L_6RzzPlGAj-21" value="" style="endArrow=none;html=1;rounded=0;entryX=0.5;entryY=0;entryDx=0;entryDy=0;exitX=-0.004;exitY=0.618;exitDx=0;exitDy=0;exitPerimeter=0;" edge="1" parent="1" source="Qo5TcCkdi5H7ZfwQuHz0-50" target="Qo5TcCkdi5H7ZfwQuHz0-6">
          <mxGeometry width="50" height="50" relative="1" as="geometry">
            <mxPoint x="590" y="125" as="sourcePoint" />
            <mxPoint x="590" y="234" as="targetPoint" />
          </mxGeometry>
        </mxCell>
        <mxCell id="zIO-TWlo7L_6RzzPlGAj-22" value="" style="endArrow=none;html=1;rounded=0;entryX=0.5;entryY=0;entryDx=0;entryDy=0;exitX=0.973;exitY=0.722;exitDx=0;exitDy=0;exitPerimeter=0;" edge="1" parent="1" source="Qo5TcCkdi5H7ZfwQuHz0-48" target="Qo5TcCkdi5H7ZfwQuHz0-6">
          <mxGeometry width="50" height="50" relative="1" as="geometry">
            <mxPoint x="600" y="135" as="sourcePoint" />
            <mxPoint x="600" y="244" as="targetPoint" />
          </mxGeometry>
        </mxCell>
        <mxCell id="zIO-TWlo7L_6RzzPlGAj-24" value="" style="endArrow=none;html=1;rounded=0;entryX=0.5;entryY=0;entryDx=0;entryDy=0;exitX=1.014;exitY=0.67;exitDx=0;exitDy=0;exitPerimeter=0;" edge="1" parent="1" source="Qo5TcCkdi5H7ZfwQuHz0-51" target="Qo5TcCkdi5H7ZfwQuHz0-6">
          <mxGeometry width="50" height="50" relative="1" as="geometry">
            <mxPoint x="610" y="145" as="sourcePoint" />
            <mxPoint x="610" y="254" as="targetPoint" />
          </mxGeometry>
        </mxCell>
        <mxCell id="zIO-TWlo7L_6RzzPlGAj-25" value="" style="endArrow=none;html=1;rounded=0;entryX=0.5;entryY=0;entryDx=0;entryDy=0;exitX=0.043;exitY=0.744;exitDx=0;exitDy=0;exitPerimeter=0;" edge="1" parent="1" source="zIO-TWlo7L_6RzzPlGAj-12" target="Qo5TcCkdi5H7ZfwQuHz0-3">
          <mxGeometry width="50" height="50" relative="1" as="geometry">
            <mxPoint x="620" y="155" as="sourcePoint" />
            <mxPoint x="620" y="264" as="targetPoint" />
          </mxGeometry>
        </mxCell>
        <mxCell id="zIO-TWlo7L_6RzzPlGAj-27" value="" style="endArrow=none;html=1;rounded=0;exitX=0.5;exitY=1;exitDx=0;exitDy=0;entryX=0.626;entryY=0.012;entryDx=0;entryDy=0;entryPerimeter=0;" edge="1" parent="1" source="zIO-TWlo7L_6RzzPlGAj-9" target="zIO-TWlo7L_6RzzPlGAj-10">
          <mxGeometry width="50" height="50" relative="1" as="geometry">
            <mxPoint x="867.5" y="597" as="sourcePoint" />
            <mxPoint x="822.5" y="561" as="targetPoint" />
          </mxGeometry>
        </mxCell>
        <mxCell id="zIO-TWlo7L_6RzzPlGAj-29" value="" style="endArrow=none;html=1;rounded=0;exitX=0.5;exitY=1;exitDx=0;exitDy=0;entryX=0.334;entryY=0.012;entryDx=0;entryDy=0;entryPerimeter=0;" edge="1" parent="1" source="zIO-TWlo7L_6RzzPlGAj-9" target="zIO-TWlo7L_6RzzPlGAj-13">
          <mxGeometry width="50" height="50" relative="1" as="geometry">
            <mxPoint x="960" y="508" as="sourcePoint" />
            <mxPoint x="931" y="550" as="targetPoint" />
          </mxGeometry>
        </mxCell>
        <mxCell id="zIO-TWlo7L_6RzzPlGAj-30" value="Incluye" style="rhombus;whiteSpace=wrap;html=1;" vertex="1" parent="1">
          <mxGeometry x="885" y="330" width="130" height="40" as="geometry" />
        </mxCell>
        <mxCell id="zIO-TWlo7L_6RzzPlGAj-31" value="" style="endArrow=none;html=1;rounded=0;entryX=0.5;entryY=1;entryDx=0;entryDy=0;exitX=0.5;exitY=0;exitDx=0;exitDy=0;" edge="1" parent="1" source="zIO-TWlo7L_6RzzPlGAj-9" target="zIO-TWlo7L_6RzzPlGAj-30">
          <mxGeometry width="50" height="50" relative="1" as="geometry">
            <mxPoint x="560" y="460" as="sourcePoint" />
            <mxPoint x="560" y="380" as="targetPoint" />
          </mxGeometry>
        </mxCell>
        <mxCell id="zIO-TWlo7L_6RzzPlGAj-32" value="(1,n)" style="edgeLabel;html=1;align=center;verticalAlign=middle;resizable=0;points=[];" vertex="1" connectable="0" parent="zIO-TWlo7L_6RzzPlGAj-31">
          <mxGeometry x="0.7977" y="-2" relative="1" as="geometry">
            <mxPoint x="18" y="52" as="offset" />
          </mxGeometry>
        </mxCell>
        <mxCell id="zIO-TWlo7L_6RzzPlGAj-33" value="" style="endArrow=none;html=1;rounded=0;exitX=0.5;exitY=0;exitDx=0;exitDy=0;entryX=0.5;entryY=1;entryDx=0;entryDy=0;" edge="1" parent="1" source="zIO-TWlo7L_6RzzPlGAj-30" target="Qo5TcCkdi5H7ZfwQuHz0-3">
          <mxGeometry width="50" height="50" relative="1" as="geometry">
            <mxPoint x="920" y="340" as="sourcePoint" />
            <mxPoint x="920" y="244" as="targetPoint" />
          </mxGeometry>
        </mxCell>
        <mxCell id="zIO-TWlo7L_6RzzPlGAj-34" value="(1,1)" style="edgeLabel;html=1;align=center;verticalAlign=middle;resizable=0;points=[];" vertex="1" connectable="0" parent="zIO-TWlo7L_6RzzPlGAj-33">
          <mxGeometry x="0.7977" y="-2" relative="1" as="geometry">
            <mxPoint x="18" y="6" as="offset" />
          </mxGeometry>
        </mxCell>
      </root>
    </mxGraphModel>
  </diagram>
</mxfile>
